<?xml version="1.0" encoding="UTF-8"?>
<svg version="1.1" viewBox="0 0 2048 2048" width="512" height="512" xmlns="http://www.w3.org/2000/svg">
<path transform="translate(892,343)" d="m0 0h11l12 4 10 7 7 8 6 12 1 5v12l-3 12-7 11-9 8-8 4-16 3-42 4-33 5-36 7-35 9-35 11-32 12-32 14-25 12-22 12-27 16-33 22-16 12-18 14-14 12-11 9-13 12-36 36-1 2h-2l-2 4-10 11-9 11-13 16-14 19-14 20-12 19-9 15-12 21-14 27-13 29-11 27-9 26-8 25-12 48-7 38-4 32-3 42v61l3 39 5 38 5 27 6 27 10 36 12 36 11 28 8 18 13 28 15 28 10 17 12 19 11 16 10 14 10 13 14 18 9 10 9 11 16 17 14 15 7 14 1 4v16l-3 10-9 13-139 139 10-1h156l4-2v3l110-1 14-14 3-1v2l-8 7-6 7 109-1 8-7 11-11v3l-14 14-1 2 108-1 8-6-2 4-2 3 120-1 31-1 29-2 45-6 36-7 40-10 46-15 28-11 33-15 19-9 23-13 16-9 25-16 20-14 19-14 22-18 14-12 31-29 7-7 7-8 8-8 7-8 12-14 11-14 13-17 12-17 9-13 12-19 15-26 12-22 13-28 12-28 7-18 12-37 9-33 7-33 6-35 4-36 3-29 4-10 7-9 9-7 9-4 6-1h12l12 3 11 7 9 11 4 9 1 4v22l-3 32-4 30-8 44-7 30-10 35-12 36-16 41-12 26-15 30-13 23-16 27-16 24-13 19-9 11-9 12-8 10-11 13-12 14-16 17-11 11-5 6-8 7-12 12-8 7-10 9-11 9-12 10-17 13-15 11-20 14-22 14-25 15-26 14-36 18-36 15-30 11-34 11-33 9-41 9-45 7-38 4-29 2h-764l-10-3-10-6-9-10-5-11-2-9v-7l3-12 5-9 9-10 178-178-3-5-10-11-8-10-13-16-15-20-14-20-13-20-13-21-14-25-18-35-13-29-11-28-9-24-9-28-10-38-6-26-7-39-5-37-3-37-1-20v-47l3-44 5-43 6-37 10-43 12-42 13-38 11-27 11-25 13-27 12-22 10-18 14-23 17-25 12-17 10-13 11-14 9-11 12-14 24-26 31-31 8-7 11-10 11-9 13-11 16-12 19-14 23-16 18-11 20-12 29-16 32-16 30-13 37-14 34-11 29-8 34-8 24-5 43-6 32-3z" fill="#020202"/>
<path transform="translate(1466,171)" d="m0 0h55l27 3 28 5 30 8 24 8 30 13 23 12 21 13 17 12 13 10 14 12 13 12 15 15 7 8 11 13 12 16 10 15 8 13 10 18 14 29 10 27 8 28 6 29 4 29 1 12v45l-3 31-5 29-8 31-9 26-11 26-14 27-12 19-11 16-12 15-9 11-12 13-21 21-11 9-12 10-17 12-17 11-21 12-25 12-23 9-21 7-36 9-37 5-11 1h-52l-21-2-30-5-36-9-26-9-25-11-22-11-23-14-20-14-16-13-13-11-29-29-9-11-13-16-11-16-12-19-13-24-11-25-6-15-9-29-6-26-5-32-2-24v-38l4-38 5-26 7-27 10-29 11-25 12-24 13-21 13-19 9-11 8-10 11-12 12-13 14-13 11-9 12-10 17-12 17-11 23-13 28-13 24-9 27-8 28-6 19-3zm6 85-26 3-25 5-24 7-25 10-17 8-19 11-12 8-14 10-15 13-12 11-11 11-18 22-13 19-10 17-10 19-11 28-7 24-5 23-3 25-1 30 2 28 5 30 7 25 8 22 9 20 13 23 10 16 6 8 4-2 413-413-4-4-19-13-17-10-23-11-24-9-21-6-18-4-22-3-11-1zm259 121-7 6-7 8-401 401 3 3 19 12 18 10 19 9 25 9 20 6 32 6 26 3h32l27-3 31-6 24-7 24-9 19-9 19-11 15-10 16-12 14-12 19-19 9-11 10-13 10-15 10-18 8-16 8-19 9-28 5-23 3-22 1-12v-38l-3-27-5-25-7-24-8-22-13-27-11-18-11-16z" fill="#020202"/>
<path transform="translate(616,1887)" d="m0 0v3l-17 16-5 4 2-4 16-16h2v-2z" fill="#898989"/>
<path transform="translate(495,1894)" d="m0 0 2 2-8 7-5 4 2-4z" fill="#DADADA"/>
<path transform="translate(651,1779)" d="m0 0 4 2 6 7-4-2-5-4z" fill="#242424"/>
<path transform="translate(766,1781)" d="m0 0 4 2 5 6-4-2z" fill="#2A2A2A"/>
<path transform="translate(643,1771)" d="m0 0 5 5-4-2z" fill="#626262"/>
<path transform="translate(620,1883)" d="m0 0 2 1-3 3-2-1z" fill="#DADADA"/>
<path transform="translate(884,1785)" d="m0 0 3 3-3-1z" fill="#AEAEAE"/>
<path transform="translate(640,1769)" d="m0 0 3 1h-3z" fill="#DADADA"/>
<path transform="translate(648,1776)" d="m0 0 2 2h-2z" fill="#4A4A4A"/>
<path transform="translate(481,1908)" d="m0 0 2 1z" fill="#DADADA"/>
<path transform="translate(483,1907)" d="m0 0" fill="#DADADA"/>
<path transform="translate(381,1897)" d="m0 0" fill="#DADADA"/>
<path transform="translate(497,1894)" d="m0 0" fill="#DADADA"/>
<path transform="translate(382,1894)" d="m0 0" fill="#DADADA"/>
<path transform="translate(496,1893)" d="m0 0" fill="#DADADA"/>
<path transform="translate(497,1892)" d="m0 0" fill="#DADADA"/>
<path transform="translate(498,1891)" d="m0 0" fill="#DADADA"/>
<path transform="translate(499,1890)" d="m0 0" fill="#DADADA"/>
<path transform="translate(386,1890)" d="m0 0" fill="#DADADA"/>
<path transform="translate(508,1883)" d="m0 0" fill="#DADADA"/>
<path transform="translate(737,1880)" d="m0 0" fill="#DADADA"/>
<path transform="translate(776,1790)" d="m0 0" fill="#020202"/>
<path transform="translate(663,1790)" d="m0 0" fill="#020202"/>
<path transform="translate(775,1789)" d="m0 0" fill="#DADADA"/>
<path transform="translate(661,1788)" d="m0 0" fill="#020202"/>
<path transform="translate(487,1788)" d="m0 0" fill="#020202"/>
<path transform="translate(547,1787)" d="m0 0" fill="#020202"/>
<path transform="translate(546,1786)" d="m0 0" fill="#020202"/>
<path transform="translate(545,1785)" d="m0 0" fill="#DADADA"/>
<path transform="translate(829,1784)" d="m0 0" fill="#DADADA"/>
<path transform="translate(544,1784)" d="m0 0" fill="#DADADA"/>
<path transform="translate(830,1783)" d="m0 0" fill="#DADADA"/>
<path transform="translate(765,1780)" d="m0 0" fill="#DADADA"/>
<path transform="translate(764,1779)" d="m0 0" fill="#DADADA"/>
<path transform="translate(763,1778)" d="m0 0" fill="#DADADA"/>
<path transform="translate(650,1778)" d="m0 0" fill="#020202"/>
<path transform="translate(762,1777)" d="m0 0" fill="#DADADA"/>
<path transform="translate(761,1776)" d="m0 0" fill="#DADADA"/>
<path transform="translate(614,1775)" d="m0 0" fill="#020202"/>
<path transform="translate(759,1774)" d="m0 0" fill="#DADADA"/>
<path transform="translate(615,1774)" d="m0 0" fill="#DADADA"/>
<path transform="translate(758,1773)" d="m0 0" fill="#DADADA"/>
<path transform="translate(616,1773)" d="m0 0" fill="#DADADA"/>
<path transform="translate(757,1772)" d="m0 0" fill="#DADADA"/>
<path transform="translate(729,1772)" d="m0 0" fill="#DADADA"/>
<path transform="translate(617,1772)" d="m0 0" fill="#DADADA"/>
<path transform="translate(730,1771)" d="m0 0" fill="#DADADA"/>
<path transform="translate(618,1771)" d="m0 0" fill="#DADADA"/>
<path transform="translate(731,1770)" d="m0 0" fill="#DADADA"/>
<path transform="translate(1057,1281)" d="m0 0" fill="#DADADA"/>
<path transform="translate(1053,1277)" d="m0 0" fill="#DADADA"/>
<path transform="translate(1049,1273)" d="m0 0" fill="#DADADA"/>
<path transform="translate(717,941)" d="m0 0" fill="#DADADA"/>
</svg>
